<svg width="33" height="33" viewBox="0 0 33 33" fill="none" xmlns="http://www.w3.org/2000/svg">
<path d="M20.3672 28.6172H12.6328C12.491 28.6172 12.375 28.7332 12.375 28.875V29.9062C12.375 30.4767 12.8358 30.9375 13.4062 30.9375H19.5938C20.1642 30.9375 20.625 30.4767 20.625 29.9062V28.875C20.625 28.7332 20.509 28.6172 20.3672 28.6172ZM16.5 2.0625C10.6638 2.0625 5.92969 6.79658 5.92969 12.6328C5.92969 16.5451 8.05664 19.9611 11.2148 21.7884V25.5234C11.2148 26.0938 11.6757 26.5547 12.2461 26.5547H20.7539C21.3243 26.5547 21.7852 26.0938 21.7852 25.5234V21.7884C24.9434 19.9611 27.0703 16.5451 27.0703 12.6328C27.0703 6.79658 22.3362 2.0625 16.5 2.0625ZM20.6218 19.7807L19.4648 20.451V24.2344H13.5352V20.451L12.3782 19.7807C9.84199 18.3144 8.25 15.6138 8.25 12.6328C8.25 8.07598 11.9432 4.38281 16.5 4.38281C21.0568 4.38281 24.75 8.07598 24.75 12.6328C24.75 15.6138 23.158 18.3144 20.6218 19.7807Z" fill="white"/>
</svg>
