<svg width="48" height="48" viewBox="0 0 48 48" fill="none" xmlns="http://www.w3.org/2000/svg">
<path d="M41.25 5.25H6.75C5.92031 5.25 5.25 5.92031 5.25 6.75V41.25C5.25 42.0797 5.92031 42.75 6.75 42.75H41.25C42.0797 42.75 42.75 42.0797 42.75 41.25V6.75C42.75 5.92031 42.0797 5.25 41.25 5.25ZM39.75 39.75H31.1203V28.2281H35.9953L36.7266 22.5703H31.1203V18.9562C31.1203 17.3156 31.575 16.2 33.9234 16.2H36.9187V11.1375C36.3984 11.0672 34.6219 10.9125 32.55 10.9125C28.2281 10.9125 25.2703 13.5516 25.2703 18.3937V22.5656H20.3859V28.2234H25.275V39.75H8.25V8.25H39.75V39.75Z" fill="white"/>
</svg>
