<svg width="33" height="33" viewBox="0 0 33 33" fill="none" xmlns="http://www.w3.org/2000/svg">
<path d="M16.5 2.0625C8.52715 2.0625 2.0625 8.52715 2.0625 16.5C2.0625 24.4729 8.52715 30.9375 16.5 30.9375C24.4729 30.9375 30.9375 24.4729 30.9375 16.5C30.9375 8.52715 24.4729 2.0625 16.5 2.0625ZM16.5 28.4883C9.88066 28.4883 4.51172 23.1193 4.51172 16.5C4.51172 9.88066 9.88066 4.51172 16.5 4.51172C23.1193 4.51172 28.4883 9.88066 28.4883 16.5C28.4883 23.1193 23.1193 28.4883 16.5 28.4883ZM13.6641 11.3438H12.1172C11.9754 11.3438 11.8594 11.4598 11.8594 11.6016V21.3984C11.8594 21.5402 11.9754 21.6562 12.1172 21.6562H13.6641C13.8059 21.6562 13.9219 21.5402 13.9219 21.3984V11.6016C13.9219 11.4598 13.8059 11.3438 13.6641 11.3438ZM20.8828 11.3438H19.3359C19.1941 11.3438 19.0781 11.4598 19.0781 11.6016V21.3984C19.0781 21.5402 19.1941 21.6562 19.3359 21.6562H20.8828C21.0246 21.6562 21.1406 21.5402 21.1406 21.3984V11.6016C21.1406 11.4598 21.0246 11.3438 20.8828 11.3438Z" fill="white"/>
</svg>
