<svg width="33" height="33" viewBox="0 0 33 33" fill="none" xmlns="http://www.w3.org/2000/svg">
<path d="M26.5612 22.5552C25.7546 21.7479 24.8121 21.089 23.7768 20.6087C25.2367 19.426 26.168 17.6213 26.168 15.5974C26.168 12.0267 23.1903 9.09734 19.6196 9.15212C16.1037 9.20691 13.271 12.0718 13.271 15.5974C13.271 17.6213 14.2055 19.426 15.6622 20.6087C14.6268 21.0886 13.6842 21.7476 12.8778 22.5552C11.1182 24.3179 10.1192 26.6447 10.0548 29.1261C10.0539 29.1605 10.0599 29.1948 10.0725 29.2268C10.0851 29.2588 10.1039 29.288 10.128 29.3126C10.152 29.3373 10.1807 29.3568 10.2124 29.3702C10.2441 29.3835 10.2782 29.3904 10.3126 29.3904H12.1173C12.2558 29.3904 12.3719 29.2808 12.3751 29.1423C12.4363 27.2731 13.1936 25.5232 14.5246 24.1955C15.2057 23.5108 16.0158 22.968 16.908 22.5985C17.8003 22.2289 18.757 22.0401 19.7227 22.0427C21.6853 22.0427 23.5319 22.8065 24.9209 24.1955C26.2486 25.5232 27.0059 27.2731 27.0704 29.1423C27.0736 29.2808 27.1896 29.3904 27.3282 29.3904H29.1329C29.1673 29.3904 29.2014 29.3835 29.2331 29.3702C29.2648 29.3568 29.2935 29.3373 29.3175 29.3126C29.3415 29.288 29.3604 29.2588 29.373 29.2268C29.3855 29.1948 29.3916 29.1605 29.3907 29.1261C29.3263 26.6447 28.3272 24.3179 26.5612 22.5552ZM19.7227 19.7224C18.6206 19.7224 17.5829 19.2938 16.8062 18.5139C16.4165 18.1272 16.1086 17.666 15.9009 17.1577C15.6933 16.6494 15.5902 16.1045 15.5977 15.5555C15.6074 14.4985 16.0296 13.4769 16.7676 12.7196C17.541 11.9268 18.5755 11.4853 19.6808 11.4724C20.7733 11.4628 21.8336 11.8882 22.6135 12.6519C23.4127 13.435 23.851 14.4824 23.851 15.5974C23.851 16.6996 23.4223 17.7341 22.6425 18.5139C22.2598 18.8984 21.8048 19.2031 21.3036 19.4106C20.8025 19.618 20.2651 19.724 19.7227 19.7224ZM11.65 16.4482C11.621 16.1678 11.6049 15.8843 11.6049 15.5974C11.6049 15.085 11.6532 14.5855 11.7434 14.0989C11.766 13.9829 11.7048 13.8636 11.5984 13.8153C11.1601 13.6187 10.7573 13.348 10.4093 13.0064C9.99914 12.6088 9.67642 12.13 9.46169 11.6006C9.24695 11.0713 9.14492 10.503 9.16209 9.93201C9.1911 8.89753 9.60682 7.91462 10.3319 7.17341C11.1279 6.35808 12.1978 5.91335 13.3354 5.92624C14.3635 5.93591 15.356 6.3323 16.1069 7.03484C16.3615 7.27331 16.5806 7.53757 16.7643 7.82117C16.8288 7.92107 16.9545 7.96296 17.064 7.92429C17.6312 7.72771 18.2306 7.58913 18.8462 7.52468C19.0266 7.50535 19.1298 7.31199 19.0492 7.15085C18.0018 5.07869 15.862 3.64783 13.387 3.60915C9.81307 3.55437 6.83533 6.48376 6.83533 10.0512C6.83533 12.0751 7.76668 13.8798 9.22655 15.0625C8.20174 15.5362 7.2575 16.1904 6.43895 17.009C4.67293 18.7718 3.67391 21.0985 3.60946 23.5832C3.6086 23.6176 3.61463 23.6518 3.6272 23.6838C3.63977 23.7158 3.65862 23.745 3.68265 23.7697C3.70668 23.7943 3.73539 23.8139 3.7671 23.8272C3.7988 23.8406 3.83286 23.8474 3.86727 23.8474H5.67518C5.81375 23.8474 5.92977 23.7379 5.93299 23.5993C5.99422 21.7302 6.75155 19.9802 8.0825 18.6525C9.02996 17.7051 10.1901 17.0476 11.4566 16.7286C11.5823 16.6964 11.6661 16.5771 11.65 16.4482Z" fill="white"/>
</svg>
