<svg width="44" height="44" viewBox="0 0 44 44" fill="none" xmlns="http://www.w3.org/2000/svg">
<path d="M30.6583 25.777C30.1899 25.5363 27.8567 24.3934 27.4228 24.2387C26.9888 24.0754 26.6708 23.998 26.3571 24.4793C26.0392 24.9563 25.1368 26.0176 24.8532 26.3398C24.5782 26.6578 24.2989 26.6965 23.8306 26.4602C21.0462 25.068 19.22 23.9766 17.3853 20.827C16.8997 19.9891 17.8708 20.0492 18.7774 18.2402C18.9321 17.9223 18.8548 17.6516 18.7345 17.4109C18.6142 17.1703 17.6688 14.8414 17.2735 13.8918C16.8911 12.968 16.4958 13.0969 16.2079 13.0797C15.9329 13.0625 15.6192 13.0625 15.3013 13.0625C14.9833 13.0625 14.472 13.1828 14.038 13.6512C13.604 14.1281 12.3794 15.2754 12.3794 17.6043C12.3794 19.9332 14.0767 22.1891 14.3087 22.507C14.5493 22.825 17.6474 27.6031 22.404 29.6613C25.4118 30.959 26.5892 31.0707 28.0931 30.8473C29.0083 30.7098 30.8946 29.7043 31.2856 28.5914C31.6767 27.4828 31.6767 26.5332 31.5606 26.3355C31.4446 26.125 31.1267 26.0047 30.6583 25.777Z" fill="white"/>
<path d="M39.7549 14.5406C38.7838 12.2332 37.3917 10.1621 35.617 8.3832C33.8424 6.60859 31.7713 5.21211 29.4596 4.24531C27.0963 3.25273 24.587 2.75 22.0002 2.75H21.9143C19.3104 2.76289 16.7881 3.27852 14.4163 4.29258C12.126 5.27227 10.0721 6.66445 8.3147 8.43906C6.55728 10.2137 5.17798 12.2762 4.22407 14.575C3.23579 16.9555 2.73735 19.4863 2.75024 22.0902C2.76313 25.0723 3.47642 28.0328 4.81274 30.6797V37.2109C4.81274 38.3023 5.6979 39.1875 6.78931 39.1875H13.3249C15.9717 40.5238 18.9323 41.2371 21.9143 41.25H22.0045C24.5784 41.25 27.0749 40.7516 29.4252 39.7762C31.7241 38.818 33.7909 37.443 35.5612 35.6855C37.3358 33.9281 38.7323 31.8742 39.7077 29.584C40.7217 27.2121 41.2374 24.6898 41.2502 22.0859C41.2631 19.4691 40.7561 16.9297 39.7549 14.5406ZM33.2624 33.3609C30.2502 36.343 26.2542 37.9844 22.0002 37.9844H21.9272C19.3362 37.9715 16.7624 37.327 14.4893 36.1152L14.1284 35.9219H8.07837V29.8719L7.88501 29.5109C6.67329 27.2379 6.02876 24.6641 6.01587 22.073C5.99868 17.7891 7.63579 13.7672 10.6393 10.7379C13.6385 7.70859 17.6475 6.03281 21.9315 6.01562H22.0045C24.153 6.01562 26.237 6.43242 28.2006 7.25742C30.117 8.06094 31.8358 9.2168 33.3139 10.6949C34.7877 12.1687 35.9479 13.8918 36.7514 15.8082C37.585 17.7934 38.0018 19.8988 37.9932 22.073C37.9674 26.3527 36.2874 30.3617 33.2624 33.3609Z" fill="white"/>
</svg>
