<svg width="57" height="57" viewBox="0 0 57 57" fill="none" xmlns="http://www.w3.org/2000/svg">
<path d="M53.4375 28.3439C53.4375 28.2215 53.4375 28.0823 53.4319 27.9209C53.4264 27.47 53.4152 26.9635 53.4041 26.4235C53.3596 24.8705 53.2816 23.323 53.1592 21.8646C52.9922 19.8552 52.7473 18.1797 52.4133 16.9217C52.0608 15.6088 51.37 14.4115 50.4098 13.4493C49.4496 12.4872 48.2536 11.7939 46.9415 11.4388C45.3662 11.0157 42.2824 10.7541 37.9406 10.5927C35.8755 10.5147 33.6656 10.4646 31.4558 10.4368C30.682 10.4257 29.964 10.4201 29.3183 10.4146H27.6817C27.036 10.4201 26.318 10.4257 25.5442 10.4368C23.3344 10.4646 21.1245 10.5147 19.0594 10.5927C14.7176 10.7597 11.6282 11.0213 10.0585 11.4388C8.74594 11.793 7.54955 12.486 6.5892 13.4483C5.62886 14.4106 4.93829 15.6084 4.58672 16.9217C4.24717 18.1797 4.00781 19.8552 3.84082 21.8646C3.71836 23.323 3.64043 24.8705 3.5959 26.4235C3.5792 26.9635 3.57363 27.47 3.56807 27.9209C3.56807 28.0823 3.5625 28.2215 3.5625 28.3439V28.6557C3.5625 28.7781 3.5625 28.9173 3.56807 29.0787C3.57363 29.5296 3.58477 30.0361 3.5959 30.5761C3.64043 32.1291 3.71836 33.6766 3.84082 35.135C4.00781 37.1444 4.25273 38.8199 4.58672 40.0779C5.29922 42.7442 7.39219 44.8483 10.0585 45.5608C11.6282 45.9839 14.7176 46.2455 19.0594 46.4069C21.1245 46.4849 23.3344 46.535 25.5442 46.5628C26.318 46.5739 27.036 46.5795 27.6817 46.5851H29.3183C29.964 46.5795 30.682 46.5739 31.4558 46.5628C33.6656 46.535 35.8755 46.4849 37.9406 46.4069C42.2824 46.2399 45.3718 45.9783 46.9415 45.5608C49.6078 44.8483 51.7008 42.7498 52.4133 40.0779C52.7528 38.8199 52.9922 37.1444 53.1592 35.135C53.2816 33.6766 53.3596 32.1291 53.4041 30.5761C53.4208 30.0361 53.4264 29.5296 53.4319 29.0787C53.4319 28.9173 53.4375 28.7781 53.4375 28.6557V28.3439ZM49.4297 28.6334C49.4297 28.7503 49.4297 28.8783 49.4241 29.0286C49.4186 29.4628 49.4074 29.9415 49.3963 30.4592C49.3573 31.9398 49.2794 33.4205 49.1625 34.7954C49.0122 36.5878 48.8007 38.0573 48.5391 39.0426C48.1939 40.3284 47.1809 41.3471 45.9006 41.6866C44.7316 41.9983 41.787 42.2488 37.7848 42.3991C35.7586 42.4771 33.5766 42.5272 31.4001 42.555C30.6375 42.5661 29.9306 42.5717 29.296 42.5717H27.704L25.5999 42.555C23.4234 42.5272 21.247 42.4771 19.2152 42.3991C15.213 42.2433 12.2628 41.9983 11.0994 41.6866C9.81914 41.3415 8.80605 40.3284 8.46094 39.0426C8.19932 38.0573 7.98779 36.5878 7.8375 34.7954C7.72061 33.4205 7.64824 31.9398 7.60371 30.4592C7.58701 29.9415 7.58145 29.4572 7.57588 29.0286C7.57588 28.8783 7.57031 28.7447 7.57031 28.6334V28.3662C7.57031 28.2493 7.57031 28.1213 7.57588 27.971C7.58145 27.5368 7.59258 27.0581 7.60371 26.5404C7.64268 25.0598 7.72061 23.5791 7.8375 22.2042C7.98779 20.4118 8.19932 18.9423 8.46094 17.957C8.80605 16.6712 9.81914 15.6525 11.0994 15.313C12.2684 15.0013 15.213 14.7508 19.2152 14.6005C21.2414 14.5226 23.4234 14.4725 25.5999 14.4446C26.3625 14.4335 27.0694 14.4279 27.704 14.4279H29.296L31.4001 14.4446C33.5766 14.4725 35.753 14.5226 37.7848 14.6005C41.787 14.7563 44.7372 15.0013 45.9006 15.313C47.1809 15.6581 48.1939 16.6712 48.5391 17.957C48.8007 18.9423 49.0122 20.4118 49.1625 22.2042C49.2794 23.5791 49.3518 25.0598 49.3963 26.5404C49.413 27.0581 49.4186 27.5424 49.4241 27.971C49.4241 28.1213 49.4297 28.2549 49.4297 28.3662V28.6334ZM23.5459 35.9588L36.46 28.4441L23.5459 21.0408V35.9588Z" fill="white"/>
</svg>
